<?xml version="1.0" standalone="no"?>
<!DOCTYPE svg PUBLIC "-//W3C//DTD SVG 20010904//EN"
 "http://www.w3.org/TR/2001/REC-SVG-20010904/DTD/svg10.dtd">
<svg version="1.0" xmlns="http://www.w3.org/2000/svg"
 width="700.000000pt" height="700.000000pt" viewBox="0 0 700.000000 700.000000"
 preserveAspectRatio="xMidYMid meet">
<metadata>
Created by potrace 1.14, written by Peter Selinger 2001-2017
</metadata>
<g transform="translate(0.000000,700.000000) scale(0.100000,-0.100000)"
fill="#000000" stroke="none">
<path d="M679 6992 c0 -4 -1 -297 -2 -651 -2 -547 0 -647 12 -665 13 -18 155
-197 186 -233 5 -7 15 -18 20 -25 115 -144 341 -424 345 -428 3 -3 21 -25 40
-50 19 -25 37 -47 40 -50 3 -3 100 -122 215 -265 195 -243 389 -484 648 -805
60 -74 116 -144 126 -155 15 -18 167 -207 660 -820 102 -126 188 -232 191
-235 3 -3 17 -21 32 -42 15 -20 33 -42 40 -50 15 -15 69 -83 278 -343 79 -99
147 -182 150 -185 3 -3 50 -61 105 -130 54 -69 104 -130 110 -137 5 -7 15 -18
20 -25 6 -7 85 -105 175 -217 91 -111 185 -228 209 -259 24 -31 60 -77 81
-102 21 -25 107 -130 191 -235 84 -104 189 -235 233 -290 45 -55 85 -106 91
-113 26 -34 50 -51 83 -60 20 -6 98 -29 172 -52 154 -48 268 -83 355 -110 33
-10 222 -69 420 -130 448 -140 415 -130 416 -122 0 4 1 295 2 647 2 473 -1
645 -10 662 -9 18 -174 227 -275 348 -9 11 -65 81 -125 155 -59 74 -175 217
-256 317 -81 101 -213 265 -294 365 -80 101 -158 197 -172 214 -14 17 -37 46
-51 64 -14 18 -30 37 -35 44 -6 6 -76 92 -155 191 -80 99 -153 189 -162 200
-17 21 -354 439 -400 496 -14 19 -154 192 -309 384 -155 193 -375 465 -488
605 -112 140 -216 269 -230 286 -14 17 -40 49 -57 70 -47 58 -183 227 -197
244 -7 8 -87 107 -177 220 -159 198 -178 221 -210 260 -8 10 -28 34 -43 53
-15 19 -73 91 -128 158 -55 68 -105 131 -112 139 -42 54 -134 167 -142 176 -5
6 -23 28 -40 50 -55 70 -135 169 -154 189 -11 12 -68 36 -137 57 -66 20 -213
65 -329 101 -115 36 -372 115 -570 177 -198 61 -366 113 -372 115 -7 2 -13 1
-14 -3z"/>
<path d="M4375 6894 c94 -58 179 -111 190 -117 11 -7 38 -24 60 -38 22 -14 47
-29 55 -32 8 -4 34 -20 57 -35 61 -39 471 -294 502 -312 120 -69 380 -239 396
-258 37 -45 330 -408 360 -447 17 -21 35 -43 40 -49 6 -6 28 -33 50 -61 22
-27 42 -52 45 -55 3 -3 47 -58 99 -122 51 -65 94 -118 94 -118 1 0 2 393 1
872 l-1 873 -1059 3 -1059 2 170 -106z"/>
<path d="M679 1728 c-1 -17 -1 -1699 0 -1715 1 -10 148 -13 701 -13 385 0 700
3 700 6 0 6 -106 141 -121 154 -3 3 -79 97 -169 210 -90 113 -166 207 -170
210 -3 3 -39 48 -80 100 -88 111 -102 128 -115 144 -6 6 -66 81 -135 166 -158
197 -286 356 -319 396 -33 39 -48 58 -91 114 -19 24 -40 50 -47 57 -6 7 -42
51 -79 98 -37 47 -69 85 -71 85 -1 0 -3 -6 -4 -12z"/>
</g>
</svg>
